<svg xmlns="http://www.w3.org/2000/svg" xmlns:xlink="http://www.w3.org/1999/xlink" width="26.787" height="28.611" viewBox="0 0 26.787 28.611">
  <defs>
    <clipPath id="clip-path">
      <path id="Path_805" data-name="Path 805" d="M16.417,4.6a3.648,3.648,0,1,1-7.3,0H7.3a7.3,7.3,0,0,0-7.3,7.3v6.384a.911.911,0,0,0,.912.911h4.56V31.044a.913.913,0,0,0,.912.913H19.153a.913.913,0,0,0,.912-.913V19.187h4.56a.911.911,0,0,0,.912-.911V11.893a7.3,7.3,0,0,0-7.3-7.3Z" transform="translate(0 -4.595)" fill="none"/>
    </clipPath>
  </defs>
  <g id="bolletjes_trui" data-name="bolletjes trui" transform="translate(0.625 0.625)">
    <g id="streamline-icon-award-trophy_48x48" data-name="streamline-icon-award-trophy@48x48" transform="translate(-0.454 1)">
      <g id="Group_37" data-name="Group 37" transform="translate(0.053 -1)">
        <g id="Group_36" data-name="Group 36" clip-path="url(#clip-path)">
          <path id="Path_785" data-name="Path 785" d="M4.673,7.536A2.336,2.336,0,1,1,2.336,5.2,2.337,2.337,0,0,1,4.673,7.536" transform="translate(0 -4.317)" fill="#ff0c00"/>
          <path id="Path_786" data-name="Path 786" d="M4.673,12.736A2.336,2.336,0,1,1,2.336,10.4a2.337,2.337,0,0,1,2.336,2.336" transform="translate(0 -1.929)" fill="#ff0c00"/>
          <path id="Path_787" data-name="Path 787" d="M4.673,17.936A2.336,2.336,0,1,1,2.336,15.6a2.337,2.337,0,0,1,2.336,2.336" transform="translate(0 0.459)" fill="#ff0c00"/>
          <path id="Path_788" data-name="Path 788" d="M4.673,23.136A2.336,2.336,0,1,1,2.336,20.8a2.337,2.337,0,0,1,2.336,2.336" transform="translate(0 2.847)" fill="#ff0c00"/>
          <path id="Path_789" data-name="Path 789" d="M8.673,10.536A2.336,2.336,0,1,1,6.336,8.2a2.337,2.337,0,0,1,2.336,2.336" transform="translate(1.837 -2.939)" fill="#ff0c00"/>
          <path id="Path_790" data-name="Path 790" d="M8.673,15.736A2.336,2.336,0,1,1,6.336,13.4a2.337,2.337,0,0,1,2.336,2.336" transform="translate(1.837 -0.551)" fill="#ff0c00"/>
          <path id="Path_791" data-name="Path 791" d="M8.673,20.936A2.336,2.336,0,1,1,6.336,18.6a2.337,2.337,0,0,1,2.336,2.336" transform="translate(1.837 1.837)" fill="#ff0c00"/>
          <path id="Path_792" data-name="Path 792" d="M8.673,5.336A2.336,2.336,0,1,1,6.336,3,2.337,2.337,0,0,1,8.673,5.336" transform="translate(1.837 -5.327)" fill="#ff0c00"/>
          <path id="Path_793" data-name="Path 793" d="M12.673,7.536A2.336,2.336,0,1,1,10.336,5.2a2.337,2.337,0,0,1,2.336,2.336" transform="translate(3.674 -4.317)" fill="#ff0c00"/>
          <path id="Path_794" data-name="Path 794" d="M12.673,12.736A2.336,2.336,0,1,1,10.336,10.4a2.337,2.337,0,0,1,2.336,2.336" transform="translate(3.674 -1.929)" fill="#ff0c00"/>
          <path id="Path_795" data-name="Path 795" d="M12.673,17.936A2.336,2.336,0,1,1,10.336,15.6a2.337,2.337,0,0,1,2.336,2.336" transform="translate(3.674 0.459)" fill="#ff0c00"/>
          <path id="Path_796" data-name="Path 796" d="M12.673,23.136A2.336,2.336,0,1,1,10.336,20.8a2.337,2.337,0,0,1,2.336,2.336" transform="translate(3.674 2.847)" fill="#ff0c00"/>
          <path id="Path_797" data-name="Path 797" d="M16.673,10.536A2.336,2.336,0,1,1,14.336,8.2a2.337,2.337,0,0,1,2.336,2.336" transform="translate(5.511 -2.939)" fill="#ff0c00"/>
          <path id="Path_798" data-name="Path 798" d="M16.673,15.736A2.336,2.336,0,1,1,14.336,13.4a2.337,2.337,0,0,1,2.336,2.336" transform="translate(5.511 -0.551)" fill="#ff0c00"/>
          <path id="Path_799" data-name="Path 799" d="M16.673,20.936A2.336,2.336,0,1,1,14.336,18.6a2.337,2.337,0,0,1,2.336,2.336" transform="translate(5.511 1.837)" fill="#ff0c00"/>
          <path id="Path_800" data-name="Path 800" d="M16.673,5.336A2.336,2.336,0,1,1,14.336,3a2.337,2.337,0,0,1,2.336,2.336" transform="translate(5.511 -5.327)" fill="#ff0c00"/>
          <path id="Path_801" data-name="Path 801" d="M20.673,7.536A2.336,2.336,0,1,1,18.336,5.2a2.337,2.337,0,0,1,2.336,2.336" transform="translate(7.348 -4.317)" fill="#ff0c00"/>
          <path id="Path_802" data-name="Path 802" d="M20.673,12.736A2.336,2.336,0,1,1,18.336,10.4a2.337,2.337,0,0,1,2.336,2.336" transform="translate(7.348 -1.929)" fill="#ff0c00"/>
          <path id="Path_803" data-name="Path 803" d="M20.673,17.936A2.336,2.336,0,1,1,18.336,15.6a2.337,2.337,0,0,1,2.336,2.336" transform="translate(7.348 0.459)" fill="#ff0c00"/>
          <path id="Path_804" data-name="Path 804" d="M20.673,23.136A2.336,2.336,0,1,1,18.336,20.8a2.337,2.337,0,0,1,2.336,2.336" transform="translate(7.348 2.847)" fill="#ff0c00"/>
        </g>
      </g>
    </g>
    <path id="Path_781" data-name="Path 781" d="M5,6.875V24.2a.912.912,0,0,0,.912.912H18.681a.912.912,0,0,0,.912-.912V6.875" transform="translate(0.472 2.245)" fill="none" stroke="#000" stroke-linecap="round" stroke-linejoin="round" stroke-width="1.25"/>
    <path id="Path_782" data-name="Path 782" d="M21.315,15.218h4.56a.912.912,0,0,0,.912-.912V7.921a7.3,7.3,0,0,0-7.3-7.3H17.667a3.648,3.648,0,1,1-7.3,0H8.546a7.3,7.3,0,0,0-7.3,7.3v6.384a.912.912,0,0,0,.912.912h4.56" transform="translate(-1.25 -0.625)" fill="none" stroke="#000" stroke-linecap="round" stroke-linejoin="round" stroke-width="1.25"/>
    <path id="Path_783" data-name="Path 783" d="M10,3.125V6.773" transform="translate(2.769 0.523)" fill="#fbb83f" stroke="#000" stroke-linecap="round" stroke-linejoin="round" stroke-width="1.25"/>
    <path id="Path_784" data-name="Path 784" d="M13.074,8.125H11.25" transform="translate(3.343 2.82)" fill="#fbb83f" stroke="#000" stroke-linecap="round" stroke-linejoin="round" stroke-width="1.25"/>
  </g>
</svg>
