<svg xmlns="http://www.w3.org/2000/svg" width="26.787" height="28.611" viewBox="0 0 26.787 28.611">
  <g id="witte_trui" data-name="witte trui" transform="translate(0.625 0.625)">
    <path id="Path_781" data-name="Path 781" d="M5,6.875V24.2a.912.912,0,0,0,.912.912H18.681a.912.912,0,0,0,.912-.912V6.875" transform="translate(0.472 2.245)" fill="#fff" stroke="#000" stroke-linecap="round" stroke-linejoin="round" stroke-width="1.25"/>
    <path id="Path_782" data-name="Path 782" d="M21.315,15.218h4.56a.912.912,0,0,0,.912-.912V7.921a7.3,7.3,0,0,0-7.3-7.3H17.667a3.648,3.648,0,1,1-7.3,0H8.546a7.3,7.3,0,0,0-7.3,7.3v6.384a.912.912,0,0,0,.912.912h4.56" transform="translate(-1.25 -0.625)" fill="#fff" stroke="#000" stroke-linecap="round" stroke-linejoin="round" stroke-width="1.25"/>
    <path id="Path_783" data-name="Path 783" d="M10,3.125V6.773" transform="translate(2.769 0.523)" fill="#fbb83f" stroke="#000" stroke-linecap="round" stroke-linejoin="round" stroke-width="1.25"/>
    <path id="Path_784" data-name="Path 784" d="M13.074,8.125H11.25" transform="translate(3.343 2.82)" fill="#fbb83f" stroke="#000" stroke-linecap="round" stroke-linejoin="round" stroke-width="1.25"/>
  </g>
</svg>
