<svg xmlns="http://www.w3.org/2000/svg" width="39.61" height="39.723" viewBox="0 0 39.61 39.723">
  <g id="streamline-icon-award-trophy_48x48" data-name="streamline-icon-award-trophy@48x48" transform="translate(-1.967 -2.5)">
    <rect id="Rectangle_2425" data-name="Rectangle 2425" width="25.232" height="6.308" rx="2.585" transform="translate(8.756 35.053)" fill="none" stroke="#11334c" stroke-linecap="round" stroke-linejoin="round" stroke-width="1.25"/>
    <path id="Path_15777" data-name="Path 15777" d="M13.491.862H2.586A1.724,1.724,0,0,0,.862,2.585a18.943,18.943,0,0,0,37.886.256V2.585A1.724,1.724,0,0,0,37.024.862h-10.9" transform="translate(1.967 2.5)" fill="none" stroke="#11334c" stroke-linecap="round" stroke-linejoin="round" stroke-width="1.25"/>
    <path id="Path_15778" data-name="Path 15778" d="M16.239,21.192,13.3,31.17H25.933l-2.654-9.961" transform="translate(1.967 2.5)" fill="none" stroke="#11334c" stroke-linecap="round" stroke-linejoin="round" stroke-width="1.25"/>
    <path id="Path_15779" data-name="Path 15779" d="M20.815,1.409l2.1,4.136H26.5a.982.982,0,0,1,.7,1.684L23.91,10.46l1.822,4.189a.992.992,0,0,1-1.414,1.239l-4.4-2.48-4.4,2.48A.992.992,0,0,1,14.1,14.649l1.822-4.185L12.632,7.226a.981.981,0,0,1,.707-1.684h3.579l2.1-4.136a1.01,1.01,0,0,1,1.793.006Z" transform="translate(1.967 2.5)" fill="#f1ba58"/>
    <path id="Path_15780" data-name="Path 15780" d="M20.815,1.409l2.1,4.136H26.5a.982.982,0,0,1,.7,1.684L23.91,10.46l1.822,4.189a.992.992,0,0,1-1.414,1.239l-4.4-2.48-4.4,2.48A.992.992,0,0,1,14.1,14.649l1.822-4.185L12.632,7.226a.981.981,0,0,1,.707-1.684h3.579l2.1-4.136a1.01,1.01,0,0,1,1.793.006Z" transform="translate(1.967 2.5)" fill="none" stroke="#11334c" stroke-linecap="round" stroke-linejoin="round" stroke-width="1.25"/>
    <rect id="Rectangle_2426" data-name="Rectangle 2426" width="39.61" height="39.723" transform="translate(1.967 2.5)" fill="none"/>
  </g>
</svg>
