<svg xmlns="http://www.w3.org/2000/svg" xmlns:xlink="http://www.w3.org/1999/xlink" width="39.25" height="43.189" viewBox="0 0 39.25 43.189">
  <defs>
    <clipPath id="clip-path">
      <rect id="Rectangle_2428" data-name="Rectangle 2428" width="39.25" height="43.189" transform="translate(0 0)" fill="none"/>
    </clipPath>
  </defs>
  <g id="streamline-icon-award-trophy_48x48" data-name="streamline-icon-award-trophy@48x48" transform="translate(-3.467 -2)">
    <g id="Group_15501" data-name="Group 15501" transform="translate(3.467 2)" clip-path="url(#clip-path)">
      <path id="Path_15783" data-name="Path 15783" d="M33.308,41.648A26.686,26.686,0,0,1,.625,22.778" fill="none" stroke="#00334e" stroke-linecap="round" stroke-linejoin="round" stroke-width="1.25"/>
      <path id="Path_15784" data-name="Path 15784" d="M32.725,25.237c.948,2.985,2.782,7.072,5.9,7.965" fill="none" stroke="#00334e" stroke-linecap="round" stroke-linejoin="round" stroke-width="1.25"/>
      <path id="Path_15785" data-name="Path 15785" d="M5.4,32.342a11.438,11.438,0,0,1,20.3,10.211" fill="none" stroke="#00334e" stroke-linecap="round" stroke-linejoin="round" stroke-width="1.25"/>
      <path id="Path_15786" data-name="Path 15786" d="M3.063,28.824a15.215,15.215,0,0,1,10.118-8.309,2.542,2.542,0,0,0,1.907-2.141l1.124-8.725a1.271,1.271,0,0,0-1.1-1.419h0A3.814,3.814,0,0,1,15.939.648c.054.006.107.012.16.021l6.307.818A2.541,2.541,0,0,1,24.6,4.333l-1.227,9.45a2.542,2.542,0,0,0,1.248,2.529l5.714,3.3a5.083,5.083,0,0,1,1.86,6.943l-.81,1.4a2.54,2.54,0,0,0-.185,2.137,15.223,15.223,0,0,1-.756,12.154" fill="none" stroke="#00334e" stroke-linecap="round" stroke-linejoin="round" stroke-width="1.25"/>
      <path id="Path_15787" data-name="Path 15787" d="M23.149,1.7c3.786.323,5.995,2.757,5.664,5.293l-.682,11.347" fill="none" stroke="#00334e" stroke-linecap="round" stroke-linejoin="round" stroke-width="1.25"/>
      <path id="Path_15788" data-name="Path 15788" d="M19.733,4.93a.634.634,0,0,1,.235.865l0,0" fill="none" stroke="#00334e" stroke-linecap="round" stroke-linejoin="round" stroke-width="1.25"/>
      <path id="Path_15789" data-name="Path 15789" d="M18.865,5.163a.632.632,0,0,1,.864-.235l0,0" fill="none" stroke="#00334e" stroke-linecap="round" stroke-linejoin="round" stroke-width="1.25"/>
      <path id="Path_15790" data-name="Path 15790" d="M19.1,6.031a.636.636,0,0,1-.233-.868" fill="none" stroke="#00334e" stroke-linecap="round" stroke-linejoin="round" stroke-width="1.25"/>
      <path id="Path_15791" data-name="Path 15791" d="M19.965,5.8a.636.636,0,0,1-.868.233" fill="none" stroke="#00334e" stroke-linecap="round" stroke-linejoin="round" stroke-width="1.25"/>
      <path id="Path_15792" data-name="Path 15792" d="M31.354,20.384l-2.462,4.264a2.541,2.541,0,0,1-3.471.93l-2.2-1.271a2.542,2.542,0,0,1-.93-3.472l2.541-4.4" fill="#fc9567"/>
      <path id="Path_15793" data-name="Path 15793" d="M31.354,20.384l-2.462,4.264a2.541,2.541,0,0,1-3.471.93l-2.2-1.271a2.542,2.542,0,0,1-.93-3.472l2.541-4.4" fill="none" stroke="#00334e" stroke-linecap="round" stroke-linejoin="round" stroke-width="1.25"/>
    </g>
  </g>
</svg>
